<?xml version="1.0" encoding="UTF-8" standalone="no"?>
<!DOCTYPE svg PUBLIC "-//W3C//DTD SVG 1.1//EN" "http://www.w3.org/Graphics/SVG/1.1/DTD/svg11.dtd">
<svg width="100%" height="100%" viewBox="0 0 141 127" version="1.1" xmlns="http://www.w3.org/2000/svg" xmlns:xlink="http://www.w3.org/1999/xlink" xml:space="preserve" xmlns:serif="http://www.serif.com/" style="fill-rule:evenodd;clip-rule:evenodd;stroke-linejoin:round;stroke-miterlimit:2;">
    <g>
        <g>
            <path d="M126.562,41.113c-2.477,8.623 -5.636,19.623 -5.636,19.623c0.823,1.654 1.382,3.473 1.617,5.411c0.808,6.669 -2.451,12.901 -7.825,16.205c0,-0 -5.441,18.944 -5.441,18.944c0.823,1.654 1.382,3.474 1.617,5.411c1.106,9.127 -5.406,17.436 -14.533,18.542c-9.021,1.093 -17.242,-5.256 -18.5,-14.216c-2.28,-1.883 -12.877,-10.634 -12.876,-10.634c-8.761,0.45 -16.458,-6.033 -17.405,-14.862c-0.716,-6.679 2.629,-12.866 8.048,-16.095c0,-0 5.702,-18.868 5.702,-18.867c-0.713,-1.484 -1.215,-3.096 -1.463,-4.802l-7.362,-6.015c-1.132,4.128 -3.561,12.991 -3.562,12.991c0.509,1.263 0.87,2.61 1.059,4.022c0.818,6.127 -1.811,11.926 -6.392,15.437l-5.447,19.871c0.843,1.644 1.425,3.457 1.683,5.391c1.217,9.113 -5.194,17.5 -14.307,18.717c-9.113,1.217 -17.5,-5.194 -18.717,-14.307c-0.889,-6.659 2.294,-12.93 7.628,-16.299c-0,-0 4.884,-17.819 4.884,-17.818c-1.208,-1.944 -2.034,-4.168 -2.356,-6.582c-0.954,-7.139 2.774,-13.832 8.815,-16.982c-0,0 5.023,-18.326 5.023,-18.325c-0.843,-1.644 -1.425,-3.457 -1.683,-5.392c-1.217,-9.113 5.194,-17.5 14.307,-18.716c9.045,-1.208 17.375,5.098 18.689,14.104c2.326,1.9 13.295,10.863 13.295,10.863c8.796,-0.497 16.541,5.999 17.491,14.857c0.716,6.679 -2.629,12.866 -8.048,16.095c0,0 -5.702,18.868 -5.702,18.868c0.725,1.508 1.231,3.149 1.475,4.887c1.592,1.315 7.079,5.846 7.079,5.846c0,-0 3.366,-11.72 3.366,-11.72c-0.823,-1.654 -1.382,-3.473 -1.617,-5.411c-0.808,-6.669 2.451,-12.901 7.825,-16.205l5.635,-19.621c-0.677,-1.481 -1.141,-3.089 -1.347,-4.79c-1.075,-8.872 5.254,-16.947 14.126,-18.022c8.871,-1.075 16.946,5.254 18.021,14.126c0.764,6.298 -2.205,12.195 -7.166,15.47Z" style="fill:#353535;"/>
            <path d="M21.539,86.228c7.421,-0.991 14.251,4.23 15.242,11.652c0.991,7.421 -4.23,14.251 -11.651,15.242c-7.422,0.991 -14.252,-4.23 -15.243,-11.651c-0.991,-7.422 4.23,-14.252 11.652,-15.243Z" style="fill:#bbff7b;"/>
            <path d="M31.694,45.529c7.422,-0.991 14.252,4.23 15.243,11.652c0.991,7.421 -4.23,14.251 -11.652,15.242c-7.421,0.991 -14.251,-4.229 -15.242,-11.651c-0.991,-7.422 4.229,-14.252 11.651,-15.243Z" style="fill:#7bffac;"/>
            <path d="M43.849,4.83c7.422,-0.991 14.252,4.23 15.243,11.652c0.991,7.421 -4.23,14.251 -11.651,15.243c-7.422,0.991 -14.252,-4.23 -15.243,-11.652c-0.991,-7.421 4.23,-14.252 11.651,-15.243Z" style="fill:#7bfffd;"/>
            <path d="M62.698,70.272c7.445,-0.798 14.137,4.598 14.935,12.043c0.798,7.445 -4.598,14.137 -12.043,14.936c-7.445,0.798 -14.137,-4.598 -14.935,-12.043c-0.798,-7.445 4.598,-14.137 12.043,-14.936Z" style="fill:#b17bff;"/>
            <path d="M74.905,29.877c7.445,-0.799 14.137,4.598 14.935,12.042c0.798,7.445 -4.598,14.138 -12.043,14.936c-7.444,0.798 -14.137,-4.598 -14.935,-12.043c-0.798,-7.445 4.598,-14.137 12.043,-14.935Z" style="fill:#7b9fff;"/>
            <path d="M92.724,95.243c7.434,-0.9 14.2,4.403 15.1,11.836c0.901,7.433 -4.402,14.199 -11.835,15.1c-7.433,0.901 -14.199,-4.402 -15.1,-11.836c-0.901,-7.433 4.402,-14.199 11.835,-15.1Z" style="fill:#ff7be6;"/>
            <path d="M104.373,54.683c7.434,-0.901 14.2,4.403 15.1,11.836c0.901,7.433 -4.402,14.199 -11.835,15.1c-7.433,0.901 -14.199,-4.403 -15.1,-11.836c-0.901,-7.433 4.402,-14.199 11.835,-15.1Z" style="fill:#ff7b7b;"/>
            <path d="M116.022,14.123c7.433,-0.901 14.2,4.402 15.1,11.835c0.901,7.434 -4.402,14.2 -11.835,15.1c-7.433,0.901 -14.2,-4.402 -15.1,-11.835c-0.901,-7.433 4.402,-14.199 11.835,-15.1Z" style="fill:#ffc27b;"/>
        </g>
    </g>
</svg>
